<?xml version="1.0" encoding="UTF-8"?>
<svg xmlns="http://www.w3.org/2000/svg" xmlns:xlink="http://www.w3.org/1999/xlink" viewBox="0 0 279.44 310.36">
  <defs>
    <style>
      .cls-1, .cls-2 {
        fill: none;
      }

      .cls-3, .cls-4 {
        fill: #231f20;
      }

      .cls-5 {
        clip-path: url(#clippath-1);
      }

      .cls-6 {
        clip-path: url(#clippath-3);
      }

      .cls-7 {
        clip-path: url(#clippath-2);
      }

      .cls-2 {
        stroke-width: 11px;
      }

      .cls-2, .cls-4 {
        stroke: #231f20;
        stroke-linecap: round;
        stroke-miterlimit: 10;
      }

      .cls-8 {
        clip-path: url(#clippath);
      }

      .cls-4 {
        stroke-width: .75px;
      }
    </style>
    <clipPath id="clippath">
      <rect class="cls-1" x="98.47" y="57.34" width="24.78" height="235.49"/>
    </clipPath>
    <clipPath id="clippath-1">
      <rect class="cls-1" x="122.56" y="57.34" width="24.78" height="235.49"/>
    </clipPath>
    <clipPath id="clippath-2">
      <rect class="cls-1" x="66.94" y="59.98" width="15.22" height="232.15"/>
    </clipPath>
    <clipPath id="clippath-3">
      <rect class="cls-1" x="82.16" y="59.98" width="15.22" height="232.15"/>
    </clipPath>
  </defs>
  <g id="plate_w_gap" data-name="plate w/ gap">
    <g>
      <path class="cls-2" d="M148.94,5.5c69.04,0,125,55.96,125,125"/>
      <path class="cls-2" d="M23.94,130.5C23.94,61.46,79.9,5.5,148.94,5.5"/>
      <path class="cls-2" d="M104.77,247.45c-36-13.63-64.4-43.91-75.52-80.79-3.53-11.71-5.31-23.93-5.31-36.16"/>
      <path class="cls-2" d="M148.94,255.5c-2.46,0-4.91-.07-7.36-.21"/>
      <path class="cls-2" d="M273.94,130.5c0,69.04-55.96,125-125,125"/>
    </g>
  </g>
  <g id="center_pt2" data-name="center pt2">
    <g>
      <path class="cls-2" d="M148.94,59.95c38.83,0,70.32,31.59,70.32,70.55"/>
      <path class="cls-2" d="M144.23,60.11c1.57-.1,3.14-.16,4.71-.16"/>
      <path class="cls-2" d="M148.94,201.05c-3.5,0-7-.27-10.46-.8"/>
      <path class="cls-2" d="M219.25,130.5c0,38.96-31.48,70.55-70.32,70.55"/>
    </g>
  </g>
  <g id="acc_spoon" data-name="acc spoon">
    <g>
      <g id="_Mirror_Repeat_" data-name="&amp;lt;Mirror Repeat&amp;gt;">
        <g class="cls-8">
          <path class="cls-4" d="M122.87,57.71c-4.16,0-22.98,4.93-24,39.34-.83,28.02,20.33,33.55,19.89,42.49,0,0-.47,56.06-1.38,70.59s-5.05,62.5-5.05,62.5c0,0-1.64,18.88,10.53,19.78V57.71Z"/>
        </g>
      </g>
      <g id="_Mirror_Repeat_-2" data-name="&amp;lt;Mirror Repeat&amp;gt;">
        <g class="cls-5">
          <path class="cls-4" d="M122.93,57.71c4.16,0,22.98,4.93,24,39.34.83,28.02-20.33,33.55-19.89,42.49,0,0,.47,56.06,1.38,70.59s5.05,62.5,5.05,62.5c0,0,1.64,18.88-10.53,19.78V57.71Z"/>
        </g>
      </g>
    </g>
  </g>
  <g id="acc_fork" data-name="acc fork">
    <g>
      <g id="_Mirror_Repeat_-3" data-name="&amp;lt;Mirror Repeat&amp;gt;">
        <g class="cls-7">
          <path class="cls-3" d="M82.15,292.12c-.7,0-1.73-.09-2.82-.56-4.96-2.13-7.27-9.99-6.71-17.09,1.57-19.86,2.88-40.3,3.87-61.28,1.19-25.26,1.84-49.78,2.04-73.51-.24-1.07-.62-2.3-1.22-3.61-1.36-2.98-3.23-5.02-4.59-6.25-1.44-1.15-4.13-3.68-5.27-7.72-.32-1.13-.46-2.19-.51-3.12.92-19.29,1.85-38.59,2.77-57.88.11-.65.67-1.12,1.33-1.12s1.22.48,1.33,1.12c.41,15.94.82,31.89,1.23,47.83.1.39.45.67.86.68.41,0,.78-.28.88-.68.55-15.94,1.09-31.89,1.64-47.83.05-.64.6-1.13,1.24-1.12.63.01,1.16.52,1.19,1.15.63,15.92,1.25,31.85,1.88,47.77.06.47.48.81.93.78.4-.03.74-.35.8-.78-.28,61.07-.57,122.14-.85,183.21Z"/>
        </g>
      </g>
      <g id="_Mirror_Repeat_-4" data-name="&amp;lt;Mirror Repeat&amp;gt;">
        <g class="cls-6">
          <path class="cls-3" d="M82.16,292.12c.7,0,1.73-.09,2.82-.56,4.96-2.13,7.27-9.99,6.71-17.09-1.57-19.86-2.88-40.3-3.87-61.28-1.19-25.26-1.84-49.78-2.04-73.51.24-1.07.62-2.3,1.22-3.61,1.36-2.98,3.23-5.02,4.59-6.25,1.44-1.15,4.13-3.68,5.27-7.72.32-1.13.46-2.19.51-3.12-.92-19.29-1.85-38.59-2.77-57.88-.11-.65-.67-1.12-1.33-1.12s-1.22.48-1.33,1.12c-.41,15.94-.82,31.89-1.23,47.83-.1.39-.45.67-.86.68-.41,0-.78-.28-.88-.68-.55-15.94-1.09-31.89-1.64-47.83-.05-.64-.6-1.13-1.24-1.12-.63.01-1.16.52-1.19,1.15-.63,15.92-1.25,31.85-1.88,47.77-.06.47-.48.81-.93.78-.4-.03-.74-.35-.8-.78.28,61.07.57,122.14.85,183.21Z"/>
        </g>
      </g>
    </g>
  </g>
</svg>